<svg width="64" height="48" viewBox="0 0 64 48" fill="none" xmlns="http://www.w3.org/2000/svg">
<path d="M22.9488 0.289062L26.3783 6.40872C24.453 9.04858 22.6479 11.9884 20.9632 15.2282C19.3989 18.4681 18.4964 21.8279 18.2557 25.3077L28.1834 27.1076V47.8065H0.566406V33.0473C0.566406 24.5277 2.55194 17.6881 6.523 12.5284C10.6144 7.24868 16.0897 3.1689 22.9488 0.289062ZM58.6884 0.289062L62.1179 6.40872C60.1925 9.04858 58.3875 11.9884 56.7028 15.2282C55.1385 18.4681 54.2359 21.8279 53.9953 25.3077L63.9229 27.1076V47.8065H36.306V33.0473C36.306 24.5277 38.2915 17.6881 42.2626 12.5284C46.354 7.24868 51.8292 3.1689 58.6884 0.289062Z" fill="url(#paint0_linear_540_215)"/>
<defs>
<linearGradient id="paint0_linear_540_215" x1="32.2447" y1="0.289062" x2="32.2447" y2="47.8065" gradientUnits="userSpaceOnUse">
<stop stop-color="#191918"/>
<stop offset="1" stop-color="#191918" stop-opacity="0.5"/>
</linearGradient>
</defs>
</svg>
